<svg width="50" height="50" viewBox="0 0 50 50" fill="none" xmlns="http://www.w3.org/2000/svg">
<path d="M28.4375 18.75C28.4375 19.4375 27.875 20 27.1875 20L8.4375 40C7.75 40 7.1875 39.4375 7.1875 38.75V9.375C7.1875 8.6875 7.75 8.125 8.4375 8.125H19.6875C20.375 8.125 20.9375 8.6875 20.9375 9.375L28.4375 18.75Z" fill="#E40B3C"/>
<path d="M8.6875 40.625H8.4375C7.375 40.625 6.5625 39.8125 6.5625 38.75V9.375C6.5625 8.3125 7.375 7.5 8.4375 7.5H19.6875C20.625 7.5 21.4375 8.1875 21.5625 9.125L29.0625 18.5V18.75C29.0625 19.6875 28.375 20.4375 27.5 20.625L8.6875 40.625ZM8.4375 8.75C8.0625 8.75 7.8125 9 7.8125 9.375V38.75C7.8125 39 8 39.25 8.1875 39.3125L26.875 19.375H27.125C27.375 19.375 27.625 19.1875 27.75 18.9375L20.25 9.625V9.375C20.25 9 20 8.75 19.625 8.75H8.4375Z" fill="#231C1C"/>
<path d="M42.1875 38.75C42.1875 39.4375 41.625 40 40.9375 40H8.4375C7.75 40 7.1875 39.4375 7.1875 38.75L10.3125 13.75C10.3125 13.0625 10.875 12.5 11.5625 12.5H44.6875C45.375 12.5 45.9375 13.0625 45.9375 13.75L42.1875 38.75Z" fill="#E40B3C"/>
<path d="M40.9375 40.625H8.4375C7.375 40.625 6.5625 39.8125 6.5625 38.75V38.6875L9.6875 13.75C9.6875 12.75 10.5625 11.9375 11.5625 11.9375H44.6875C45.75 11.9375 46.5625 12.75 46.5625 13.8125V13.875L42.8125 38.8125C42.75 39.8125 41.9375 40.625 40.9375 40.625ZM7.8125 38.8125C7.8125 39.125 8.125 39.375 8.4375 39.375H40.9375C41.3125 39.375 41.5625 39.125 41.5625 38.75V38.6875L45.3125 13.75C45.3125 13.4375 45 13.1875 44.6875 13.1875H11.5625C11.1875 13.1875 10.9375 13.4375 10.9375 13.8125V13.875L7.8125 38.8125Z" fill="#231C1C"/>
</svg>
