<svg width="50" height="50" viewBox="0 0 50 50" fill="none" xmlns="http://www.w3.org/2000/svg">
<g clip-path="url(#clip0_96_14)">
<path d="M24.9996 6.10352e-05C11.2161 6.10352e-05 0 11.2148 0 25.001C0 38.7858 11.2161 49.9999 24.9996 49.9999C38.7841 49.9999 50 38.7856 50 25.001C50 11.2148 38.7839 6.10352e-05 24.9996 6.10352e-05ZM30.6534 20.1732C31.9859 20.1732 33.0665 21.2549 33.0665 22.5866C33.0665 23.9184 31.986 25.0002 30.6534 25.0002C29.321 25.0002 28.2386 23.9184 28.2386 22.5866C28.2386 21.255 29.321 20.1732 30.6534 20.1732ZM19.3465 20.1732C20.6799 20.1732 21.7617 21.2549 21.7617 22.5866C21.7617 23.9184 20.6799 25.0002 19.3465 25.0002C18.014 25.0002 16.934 23.9184 16.934 22.5866C16.934 21.255 18.014 20.1732 19.3465 20.1732ZM41.8605 29.9783C39.6738 37.3981 32.7412 42.5784 24.9996 42.5784C17.1941 42.5784 10.4309 37.562 8.17417 30.0967C7.88032 29.1268 8.42575 28.1086 9.39274 27.8164C10.3614 27.5216 11.3822 28.0685 11.6738 29.0376C13.4335 34.8558 18.9159 38.921 24.9987 38.921C31.1282 38.921 36.6196 34.8166 38.352 28.9458C38.638 27.9758 39.6506 27.4129 40.6225 27.7085C41.5915 27.9938 42.1482 29.0127 41.8605 29.9783Z" fill="#E40B3C"/>
</g>
<defs>
<clipPath id="clip0_96_14">
<rect width="50" height="50" fill="white"/>
</clipPath>
</defs>
</svg>
