<svg width="50" height="50" viewBox="0 0 50 50" fill="none" xmlns="http://www.w3.org/2000/svg">
<path fill-rule="evenodd" clip-rule="evenodd" d="M7.0365 10.5884C6.25 11.7089 6.25 15.0398 6.25 21.7015V24.9821C6.25 36.7279 15.0812 42.4281 20.622 44.8486C22.125 45.505 22.8765 45.8334 25 45.8334V4.16669C23.3096 4.16669 21.6771 4.72552 18.4119 5.84319L17.2186 6.25167C10.9548 8.39577 7.82298 9.46781 7.0365 10.5884Z" fill="#E40B3C"/>
<path opacity="0.5" d="M43.75 24.9821V21.7015C43.75 15.0398 43.75 11.7089 42.9635 10.5884C42.1771 9.46781 39.0452 8.39577 32.7815 6.25167L31.5881 5.84319C28.3229 4.72552 26.6904 4.16669 25 4.16669V45.8334C27.1235 45.8334 27.875 45.505 29.3779 44.8486C34.9188 42.4281 43.75 36.7279 43.75 24.9821Z" fill="#0E0C19"/>
</svg>
